<svg width="158" height="55" viewBox="0 0 158 55" fill="none" xmlns="http://www.w3.org/2000/svg">
<mask id="mask0_5525_33669" style="mask-type:alpha" maskUnits="userSpaceOnUse" x="0" y="0" width="158" height="55">
<rect width="158" height="54.5611" rx="16" fill="#1E2534"/>
</mask>
<g mask="url(#mask0_5525_33669)">
<rect x="0.5" y="0.5" width="157" height="53.5611" rx="15.5" stroke="#302A25"/>
<path d="M55.4993 16.1668L54.8963 14.278C54.7484 13.8115 54.6232 13.2909 54.5094 12.8472H54.4867C54.3757 13.2909 54.2591 13.8229 54.1254 14.278L53.5337 16.1668H55.4993ZM53.3062 17.2221L52.6462 19.3954H51.2012L53.6589 11.7321H55.4424L57.9314 19.3954H56.4323L55.7383 17.2221" fill="#302A25"/>
<path d="M60.0211 13.8601L60.92 16.6649C61.0793 17.1541 61.1902 17.5979 61.2926 18.053H61.3268C61.4292 17.5979 61.5543 17.1655 61.7023 16.6649L62.5898 13.8601H64.0547L61.9412 19.3956H60.5673L58.5078 13.8601" fill="#302A25"/>
<path d="M68.2747 16.6873C67.2848 16.6759 66.3404 16.8807 66.3404 17.7227C66.3404 18.2689 66.6931 18.5192 67.1369 18.5192C67.7029 18.5192 68.104 18.1551 68.2377 17.7568C68.2747 17.6544 68.2747 17.552 68.2747 17.4496V16.6873ZM69.6372 18.0641C69.6372 18.5647 69.66 19.054 69.7283 19.3925H68.4653L68.3657 18.7809H68.3287C68.0016 19.2104 67.4213 19.5176 66.6931 19.5176C65.578 19.5176 64.9551 18.7126 64.9551 17.8706C64.9551 16.4825 66.1925 15.7685 68.2377 15.7799V15.6888C68.2377 15.3247 68.0926 14.7217 67.1141 14.7217C66.568 14.7217 65.999 14.8924 65.6236 15.1313L65.3505 14.221C65.7601 13.9707 66.4769 13.7346 67.3531 13.7346C69.1252 13.7346 69.6372 14.8582 69.6372 16.0757" fill="#302A25"/>
<path d="M71.6129 13.8598H73.0095V19.3954H71.6129V13.8598ZM72.3041 13.0634C71.8404 13.0634 71.5332 12.722 71.5332 12.3124C71.5332 11.88 71.849 11.55 72.3183 11.55C72.7933 11.55 73.0892 11.88 73.1006 12.3124C73.1006 12.722 72.7933 13.0634 72.3183 13.0634" fill="#302A25"/>
<path d="M75.0215 19.3957H76.421V11.3114H75.0215V19.3957Z" fill="#302A25"/>
<path d="M81.3763 16.6873C80.3863 16.6759 79.4419 16.8807 79.4419 17.7227C79.4419 18.2689 79.7947 18.5192 80.2384 18.5192C80.8073 18.5192 81.2056 18.1551 81.3421 17.7568C81.3763 17.6544 81.3763 17.552 81.3763 17.4496V16.6873ZM82.7388 18.0641C82.7388 18.5647 82.7616 19.054 82.8298 19.3925H81.5697L81.4673 18.7809H81.4331C81.1032 19.2104 80.5229 19.5176 79.7947 19.5176C78.6824 19.5176 78.0566 18.7126 78.0566 17.8706C78.0566 16.4825 79.2969 15.7685 81.3421 15.7799V15.6888C81.3421 15.3247 81.1942 14.7217 80.2157 14.7217C79.6695 14.7217 79.1006 14.8924 78.728 15.1313L78.4549 14.221C78.8645 13.9707 79.5785 13.7346 80.4546 13.7346C82.2268 13.7346 82.7388 14.8582 82.7388 16.0757" fill="#302A25"/>
<path d="M86.115 17.1086C86.115 17.2224 86.1263 17.3362 86.1491 17.4386C86.297 18.0075 86.7863 18.4171 87.3865 18.4171C88.2626 18.4171 88.7974 17.7231 88.7974 16.5995C88.7974 15.6209 88.3309 14.8244 87.3979 14.8244C86.829 14.8244 86.3084 15.2341 86.1605 15.8485C86.1377 15.9509 86.115 16.0761 86.115 16.2126V17.1086ZM84.7154 11.3114H86.115V14.6196H86.1377C86.4791 14.0849 87.0793 13.735 87.9099 13.735C89.2639 13.735 90.2282 14.8586 90.2168 16.5426C90.2168 18.5309 88.9567 19.5208 87.7051 19.5208C86.9882 19.5208 86.3539 19.2478 85.9557 18.5651H85.9329L85.8646 19.3957H84.6699C84.6927 19.0202 84.7154 18.4058 84.7154 17.8482" fill="#302A25"/>
<path d="M91.8652 19.3957H93.2619V11.3114H91.8652V19.3957Z" fill="#302A25"/>
<path d="M98.7044 16.0416C98.7158 15.5295 98.4882 14.6876 97.5581 14.6876C96.6933 14.6876 96.3292 15.4727 96.2723 16.0416H98.7044ZM96.2723 17.0173C96.3065 18.0185 97.0916 18.4509 97.9791 18.4509C98.6248 18.4509 99.0799 18.3485 99.5123 18.2006L99.7171 19.1535C99.2392 19.3612 98.5793 19.5063 97.7856 19.5063C95.9879 19.5063 94.9297 18.4054 94.9297 16.7129C94.9297 15.1768 95.8627 13.7346 97.6377 13.7346C99.4326 13.7346 100.024 15.211 100.024 16.4284C100.024 16.6901 100.002 16.8949 99.9788 17.0173" fill="#302A25"/>
<path d="M106.967 18.5078C107.761 18.5078 108.319 17.7341 108.319 16.6105C108.319 15.7457 107.932 14.7444 106.979 14.7444C105.989 14.7444 105.591 15.7116 105.591 16.6332C105.591 17.7 106.125 18.5078 106.953 18.5078H106.967ZM106.922 19.5205C105.363 19.5205 104.148 18.4509 104.148 16.6674C104.148 14.8468 105.34 13.7346 107.013 13.7346C108.66 13.7346 109.764 14.8924 109.764 16.5763C109.764 18.6102 108.33 19.5205 106.933 19.5205" fill="#302A25"/>
<path d="M111.41 15.5068C111.41 14.8696 111.39 14.3348 111.367 13.8569H112.582L112.65 14.6876H112.684C112.935 14.2552 113.538 13.7346 114.459 13.7346C115.424 13.7346 116.425 14.3576 116.425 16.1098V19.3925H115.025V16.2691C115.025 15.4727 114.729 14.8696 113.97 14.8696C113.412 14.8696 113.026 15.2678 112.878 15.6888C112.832 15.8026 112.809 15.9733 112.809 16.1326V19.3925H111.41" fill="#302A25"/>
<path d="M122.867 12.437V13.8565H124.195V14.9033H122.867V17.3354C122.867 18.0181 123.049 18.3594 123.581 18.3594C123.831 18.3594 123.968 18.348 124.127 18.3025L124.15 19.3579C123.945 19.4403 123.57 19.5058 123.137 19.5058C122.617 19.5058 122.196 19.3351 121.934 19.0535C121.627 18.7349 121.49 18.2229 121.49 17.4947V14.9033H120.705V13.8565H121.49V12.8239" fill="#302A25"/>
<path d="M125.752 11.3114H127.151V14.6083H127.174C127.345 14.3466 127.584 14.1304 127.868 13.9825C128.153 13.826 128.48 13.735 128.833 13.735C129.777 13.735 130.764 14.3579 130.764 16.1329V19.3957H129.367V16.2809C129.367 15.4844 129.072 14.87 128.298 14.87C127.755 14.87 127.368 15.2341 127.208 15.6551C127.163 15.7802 127.151 15.9281 127.151 16.0761V19.3957H125.752" fill="#302A25"/>
<path d="M136.173 16.0416C136.185 15.5295 135.957 14.6876 135.024 14.6876C134.159 14.6876 133.798 15.4727 133.741 16.0416H136.173ZM133.741 17.0173C133.775 18.0185 134.557 18.4509 135.445 18.4509C136.094 18.4509 136.549 18.3485 136.978 18.2006L137.186 19.1535C136.708 19.3612 136.048 19.5063 135.252 19.5063C133.457 19.5063 132.398 18.4054 132.398 16.7129C132.398 15.1768 133.331 13.7346 135.104 13.7346C136.899 13.7346 137.49 15.211 137.49 16.4284C137.49 16.6901 137.467 16.8949 137.445 17.0173" fill="#302A25"/>
<path d="M35.9145 26.8258C35.8775 23.034 39.0179 21.1879 39.163 21.1025C37.3851 18.5083 34.6287 18.1556 33.6587 18.1271C31.3461 17.8853 29.1017 19.5153 27.9241 19.5153C26.7208 19.5153 24.9031 18.1527 22.9489 18.1926C20.4286 18.2324 18.0733 19.6916 16.7819 21.9531C14.1194 26.5698 16.1049 33.3513 18.6593 37.0833C19.9394 38.9096 21.4299 40.952 23.3841 40.878C25.2957 40.7984 26.0097 39.6605 28.3166 39.6605C30.6037 39.6605 31.275 40.878 33.269 40.8325C35.32 40.7984 36.6114 38.9977 37.8431 37.1516C39.3223 35.058 39.914 32.9957 39.9367 32.8905C39.8884 32.8734 35.9543 31.3715 35.9145 26.8258Z" fill="#302A25"/>
<path d="M32.1482 15.6748C33.1751 14.3891 33.8834 12.6368 33.6843 10.8618C32.1966 10.9301 30.3362 11.8916 29.2638 13.1489C28.3166 14.2582 27.4661 16.0759 27.6879 17.7827C29.3605 17.9078 31.0758 16.9407 32.1482 15.6748Z" fill="#302A25"/>
<path d="M58.9834 34.0648L57.6635 29.9885C57.5241 29.5732 57.2624 28.5919 56.8756 27.0501H56.8301C56.6764 27.7129 56.4261 28.6943 56.0876 29.9885L54.7905 34.0648H58.9834ZM63.5461 40.576H60.8807L59.4215 35.9906H54.3524L52.9614 40.576H50.3672L55.3964 24.965H58.497" fill="#302A25"/>
<path d="M73.9228 34.9009C73.9228 33.8029 73.6753 32.9012 73.1804 32.19C72.6399 31.4504 71.9145 31.0778 71.0043 31.0778C70.387 31.0778 69.8238 31.2855 69.326 31.6922C68.8253 32.1047 68.4953 32.6395 68.3389 33.3051C68.2621 33.6123 68.2251 33.8655 68.2251 34.0646V35.942C68.2251 36.7613 68.4754 37.4525 68.9761 38.0157C69.4796 38.5818 70.131 38.8606 70.9331 38.8606C71.8775 38.8606 72.6114 38.4993 73.132 37.7711C73.6611 37.0457 73.9228 36.0899 73.9228 34.9009ZM76.4715 34.807C76.4715 36.7214 75.9538 38.2376 74.9184 39.347C73.9911 40.3369 72.839 40.829 71.4679 40.829C69.9831 40.829 68.9192 40.2942 68.2706 39.2303H68.2251V45.1613H65.7219V33.0235C65.7219 31.8202 65.6934 30.5857 65.6309 29.317H67.8297L67.9691 31.1034H68.0175C68.8509 29.7579 70.1167 29.0866 71.815 29.0866C73.1405 29.0866 74.2528 29.6129 75.1374 30.6625C76.0249 31.715 76.4715 33.0946 76.4715 34.807Z" fill="#302A25"/>
<path d="M86.8692 34.9009C86.8692 33.8029 86.6217 32.9012 86.1267 32.19C85.5863 31.4504 84.8609 31.0778 83.9506 31.0778C83.3334 31.0778 82.773 31.2855 82.2723 31.6922C81.7688 32.1047 81.4446 32.6395 81.291 33.3051C81.2113 33.6123 81.1743 33.8655 81.1743 34.0646V35.942C81.1743 36.7613 81.4218 37.4525 81.9224 38.0157C82.4259 38.5818 83.0773 38.8606 83.8824 38.8606C84.8239 38.8606 85.5578 38.4993 86.0812 37.7711C86.6046 37.0457 86.8692 36.0899 86.8692 34.9009ZM89.415 34.807C89.415 36.7214 88.9002 38.2376 87.8648 39.347C86.9374 40.3369 85.7882 40.829 84.4143 40.829C82.9323 40.829 81.8684 40.2942 81.217 39.2303H81.1743V45.1613H78.6711V33.0235C78.6711 31.8202 78.6398 30.5857 78.5801 29.317H80.7789L80.9183 31.1034H80.9667C81.7973 29.7579 83.0631 29.0866 84.7613 29.0866C86.0897 29.0866 87.1963 29.6129 88.0866 30.6625C88.9741 31.715 89.415 33.0946 89.415 34.807Z" fill="#302A25"/>
<path d="M103.894 36.1983C103.894 37.5239 103.433 38.6048 102.506 39.4411C101.487 40.3514 100.073 40.8065 98.2557 40.8065C96.5746 40.8065 95.2263 40.4823 94.2051 39.8337L94.7854 37.7515C95.8862 38.4143 97.0895 38.7442 98.4037 38.7442C99.3452 38.7442 100.079 38.5337 100.605 38.1099C101.129 37.6832 101.39 37.1143 101.39 36.4031C101.39 35.7717 101.177 35.234 100.745 34.8017C100.312 34.3693 99.5927 33.9682 98.5886 33.5956C95.8549 32.5744 94.4895 31.081 94.4895 29.1182C94.4895 27.8353 94.9674 26.7828 95.926 25.9636C96.8818 25.1443 98.1562 24.7319 99.7463 24.7319C101.169 24.7319 102.349 24.9822 103.291 25.4743L102.665 27.5139C101.786 27.036 100.79 26.7942 99.678 26.7942C98.7962 26.7942 98.1107 27.0104 97.6186 27.4427C97.2033 27.8296 96.9928 28.3018 96.9928 28.8565C96.9928 29.4738 97.2289 29.983 97.7096 30.384C98.1249 30.7538 98.8816 31.1549 99.9796 31.5901C101.322 32.1306 102.309 32.7621 102.944 33.4875C103.575 34.2128 103.894 35.1174 103.894 36.1983Z" fill="#302A25"/>
<path d="M112.16 31.194H109.404V36.6584C109.404 38.0494 109.89 38.7435 110.866 38.7435C111.31 38.7435 111.682 38.7065 111.975 38.6297L112.043 40.527C111.554 40.7147 110.903 40.8058 110.101 40.8058C109.114 40.8058 108.34 40.5042 107.782 39.904C107.228 39.301 106.949 38.2883 106.949 36.8689V31.194H105.305V29.3166H106.949V27.2571L109.404 26.5146V29.3166H112.16" fill="#302A25"/>
<path d="M122.005 34.935C122.005 33.8968 121.78 33.0093 121.33 32.264C120.81 31.3651 120.059 30.9157 119.086 30.9157C118.082 30.9157 117.317 31.3651 116.793 32.264C116.344 33.0093 116.125 33.9138 116.125 34.9834C116.125 36.0217 116.344 36.9092 116.793 37.6516C117.334 38.5505 118.091 38.9999 119.066 38.9999C120.019 38.9999 120.77 38.5448 121.311 37.6289C121.774 36.8722 122.005 35.9733 122.005 34.935ZM124.599 34.8554C124.599 36.5849 124.107 38.0043 123.117 39.1166C122.081 40.2601 120.708 40.829 118.995 40.829C117.34 40.829 116.025 40.28 115.044 39.1848C114.065 38.0897 113.576 36.7072 113.576 35.0403C113.576 33.2937 114.08 31.8658 115.092 30.7564C116.102 29.6413 117.465 29.0866 119.177 29.0866C120.83 29.0866 122.161 29.6356 123.162 30.7308C124.121 31.8003 124.599 33.1714 124.599 34.8554Z" fill="#302A25"/>
<path d="M132.729 31.5187C132.482 31.4732 132.22 31.4504 131.941 31.4504C131.062 31.4504 130.379 31.7833 129.901 32.446C129.486 33.0349 129.279 33.7745 129.279 34.6677V40.5758H126.778L126.798 32.8642C126.798 31.5642 126.767 30.3837 126.707 29.317H128.886L128.977 31.4732H129.042C129.307 30.7336 129.725 30.1363 130.294 29.6897C130.852 29.2886 131.455 29.0866 132.103 29.0866C132.334 29.0866 132.544 29.1037 132.729 29.1321" fill="#302A25"/>
<path d="M141.528 33.7654C141.545 33.0258 141.383 32.3829 141.044 31.8424C140.612 31.1484 139.943 30.7985 139.05 30.7985C138.234 30.7985 137.568 31.1398 137.059 31.8197C136.644 32.3602 136.393 33.0087 136.322 33.7654H141.528ZM143.912 34.4139C143.912 34.8634 143.883 35.2389 143.823 35.5489H136.322C136.348 36.6611 136.712 37.5117 137.409 38.0977C138.04 38.6239 138.86 38.8828 139.864 38.8828C140.973 38.8828 141.986 38.7064 142.899 38.3508L143.292 40.0889C142.225 40.5497 140.968 40.7858 139.514 40.7858C137.77 40.7858 136.399 40.2709 135.404 39.2412C134.411 38.2171 133.91 36.8375 133.91 35.108C133.91 33.4098 134.371 31.996 135.301 30.8696C136.271 29.6635 137.585 29.0633 139.235 29.0633C140.857 29.0633 142.088 29.6635 142.922 30.8696C143.585 31.8254 143.912 33.0087 143.912 34.4139Z" fill="#302A25"/>
</g>
</svg>
