<svg width="41" height="41" viewBox="0 0 41 41" fill="none" xmlns="http://www.w3.org/2000/svg">
<mask id="mask0_216_538" style="mask-type:luminance" maskUnits="userSpaceOnUse" x="0" y="0" width="41" height="41">
<path d="M40.751 0.318359H0.750977V40.3184H40.751V0.318359Z" fill="white"/>
</mask>
<g mask="url(#mask0_216_538)">
<path d="M33.7402 3.85631C33.7339 3.80826 33.7237 3.76154 33.7118 3.71553C33.47 3.68553 27.173 2.93857 22.0732 5.25217C22.3069 5.45349 22.532 5.66123 22.7471 5.87631C24.0594 7.18849 25.1131 8.83326 25.8911 10.7761C28.2239 9.84701 30.885 9.22428 33.802 8.93396C34.0306 6.16607 33.7651 4.04389 33.7402 3.85631Z" fill="white"/>
<path d="M21.0312 7.59284C16.299 2.86057 7.54345 3.54713 6.12188 3.69416C6.1072 3.7469 6.09524 3.80081 6.08782 3.85627C6.06454 4.03198 5.82977 5.90534 5.98805 8.41713C6.72313 8.45174 7.50196 8.50815 8.31165 8.59401C11.0465 8.88409 13.5666 9.45206 15.8019 10.2821C17.8969 11.06 19.7455 12.072 21.3226 13.2999C22.0505 12.7528 22.8394 12.2517 23.6854 11.7986C23.0252 10.1094 22.1355 8.69706 21.0312 7.59284Z" fill="white"/>
<path d="M11.7661 24.6527C11.4451 24.0641 11.662 23.3269 12.2505 23.0059C12.8388 22.6848 13.5763 22.9017 13.8973 23.4902C14.7914 25.1295 15.9842 27.0559 17.4747 28.9293C17.7885 27.684 18.0272 25.8459 17.6522 23.6034C17.5417 22.9423 17.988 22.3166 18.6492 22.206C19.3106 22.0961 19.936 22.5419 20.0465 23.2031C20.6699 26.9317 19.8661 29.7352 19.3399 31.0608C20.5421 32.3043 21.8893 33.4579 23.3835 34.4047C24.7472 35.2689 25.907 35.7499 26.7143 36.0141C26.8061 34.5993 26.8727 32.2077 26.5793 29.4823C26.1566 25.5557 24.8777 20.0999 21.1855 16.4077C14.9463 10.1686 3.74492 10.6851 0.898041 10.9306C0.793354 12.0064 0.602104 14.7557 0.952416 18.0727C1.21445 20.5541 1.72781 22.841 2.47805 24.8699C3.43242 27.4508 4.77508 29.6218 6.4689 31.3228C8.16273 33.0238 10.3247 34.3722 12.8947 35.3306C14.9151 36.084 17.1924 36.5994 19.6635 36.8625C20.908 36.9951 22.0721 37.0504 23.0973 37.0623C19.9514 35.3209 15.6586 31.7888 11.7661 24.6527Z" fill="white"/>
<path d="M34.2366 11.33C31.0267 11.6307 26.6395 12.5132 23.1631 14.9603C24.9111 16.7896 26.3063 19.085 27.3112 21.7916C28.1413 24.0269 28.7092 26.547 28.9993 29.2819C29.2136 31.3025 29.2448 33.1318 29.2105 34.5644C31.6313 33.6486 33.6715 32.3696 35.2742 30.7601C36.8975 29.13 38.184 27.05 39.0982 24.5778C39.8163 22.6357 40.3076 20.4471 40.5583 18.0725C40.8876 14.9547 40.7166 12.361 40.6155 11.2948C39.4968 11.1989 37.0869 11.063 34.2366 11.33Z" fill="white"/>
</g>
</svg>
