<svg width="19" height="20" viewBox="0 0 19 20" fill="none" xmlns="http://www.w3.org/2000/svg">
<path d="M18.7787 14.0905C18.7787 17.4789 16.7587 19.4989 13.3703 19.4989H12.2625C11.7505 19.4989 11.3316 19.08 11.3316 18.568V13.1968C11.3316 12.9455 11.5364 12.7314 11.7878 12.7314L13.4261 12.7035C13.5564 12.6942 13.6681 12.6011 13.6961 12.4708L14.0219 10.6928C14.0498 10.5252 13.9195 10.367 13.7426 10.367L11.7599 10.3949C11.4992 10.3949 11.2944 10.1901 11.2851 9.93877L11.2479 7.65813C11.2479 7.50919 11.3689 7.37886 11.5271 7.37886L13.7612 7.34163C13.9195 7.34163 14.0405 7.22062 14.0405 7.06237L14.0033 4.82826C14.0033 4.67001 13.8822 4.549 13.724 4.549L11.2106 4.58625C9.66538 4.61417 8.43662 5.88015 8.46455 7.42541L8.51109 9.98532C8.5204 10.246 8.31561 10.4508 8.05496 10.4601L6.93791 10.4787C6.77966 10.4787 6.65865 10.5997 6.65865 10.7579L6.68658 12.5266C6.68658 12.6849 6.80759 12.8059 6.96584 12.8059L8.08289 12.7873C8.34354 12.7873 8.54833 12.992 8.55764 13.2434L8.64142 18.5494C8.65073 19.0707 8.23183 19.4989 7.71054 19.4989H5.56952C2.18113 19.4989 0.161133 17.4789 0.161133 14.0812V6.28974C0.161133 2.90135 2.18113 0.881348 5.56952 0.881348H13.3703C16.7587 0.881348 18.7787 2.90135 18.7787 6.28974V14.0905Z" fill="black"/>
</svg>
