<svg width="19" height="20" viewBox="0 0 19 20" fill="none" xmlns="http://www.w3.org/2000/svg">
<path d="M13.4005 0.881348H5.5998C2.21141 0.881348 0.191406 2.90135 0.191406 6.28974V14.0812C0.191406 17.4789 2.21141 19.4989 5.5998 19.4989H13.3912C16.7796 19.4989 18.7996 17.4789 18.7996 14.0905V6.28974C18.8089 2.90135 16.7889 0.881348 13.4005 0.881348ZM9.50017 13.8019C7.50809 13.8019 5.88837 12.1822 5.88837 10.1901C5.88837 8.19803 7.50809 6.57831 9.50017 6.57831C11.4922 6.57831 13.112 8.19803 13.112 10.1901C13.112 12.1822 11.4922 13.8019 9.50017 13.8019ZM15.011 5.42402C14.9644 5.53573 14.8993 5.63812 14.8155 5.73121C14.7224 5.81499 14.62 5.88015 14.5083 5.9267C14.3966 5.97324 14.2756 6.00117 14.1546 6.00117C13.9032 6.00117 13.6705 5.90808 13.4936 5.73121C13.4098 5.63812 13.3447 5.53573 13.2981 5.42402C13.2516 5.31232 13.2237 5.19131 13.2237 5.07029C13.2237 4.94928 13.2516 4.82826 13.2981 4.71656C13.3447 4.59554 13.4098 4.50246 13.4936 4.40937C13.7077 4.19527 14.0335 4.09287 14.3314 4.15803C14.3966 4.16734 14.4524 4.18596 14.5083 4.21388C14.5641 4.2325 14.62 4.26043 14.6758 4.29766C14.7224 4.32559 14.7689 4.37213 14.8155 4.40937C14.8993 4.50246 14.9644 4.59554 15.011 4.71656C15.0575 4.82826 15.0854 4.94928 15.0854 5.07029C15.0854 5.19131 15.0575 5.31232 15.011 5.42402Z" fill="black"/>
</svg>
