<svg width="33" height="43" viewBox="0 0 33 43" fill="none" xmlns="http://www.w3.org/2000/svg">
<path d="M16.7778 7.68079C13.9457 7.68079 11.6416 10.1931 11.6416 13.281C11.6416 16.369 13.9457 18.8813 16.7778 18.8813C19.6098 18.8813 21.914 16.3691 21.914 13.281C21.914 10.193 19.6098 7.68079 16.7778 7.68079ZM16.7778 17.8504C14.5142 17.8504 12.6725 15.8006 12.6725 13.281C12.6725 10.7614 14.5142 8.71168 16.7778 8.71168C19.0414 8.71168 20.8831 10.7614 20.8831 13.281C20.8831 15.8006 19.0415 17.8504 16.7778 17.8504Z" fill="white"/>
<path d="M14.7782 9.81699C14.6081 9.96422 14.456 10.1309 14.3247 10.3135C14.2445 10.4242 14.2115 10.5622 14.233 10.6972C14.2545 10.8323 14.3288 10.9532 14.4394 11.0334C14.5501 11.1137 14.6881 11.1467 14.8231 11.1252C14.9581 11.1037 15.0791 11.0294 15.1593 10.9188C15.2432 10.8014 15.3404 10.6943 15.4492 10.5995C15.5013 10.5557 15.5443 10.502 15.5756 10.4414C15.6068 10.3809 15.6258 10.3148 15.6313 10.2469C15.6369 10.179 15.6289 10.1107 15.6079 10.0459C15.5869 9.98108 15.5532 9.92108 15.5089 9.86937C15.4645 9.81766 15.4104 9.77525 15.3495 9.74459C15.2887 9.71394 15.2224 9.69564 15.1544 9.69077C15.0865 9.6859 15.0183 9.69455 14.9537 9.71621C14.8891 9.73788 14.8294 9.77213 14.7782 9.81699Z" fill="white"/>
<path d="M14.2943 11.2735C14.2316 11.248 14.1645 11.235 14.0968 11.2354C14.0291 11.2357 13.9622 11.2494 13.8998 11.2756C13.8374 11.3019 13.7808 11.3402 13.7332 11.3883C13.6856 11.4364 13.6479 11.4934 13.6223 11.5561C13.2937 12.3928 13.166 13.295 13.2494 14.19C13.2616 14.3175 13.3209 14.4359 13.4156 14.5222C13.5104 14.6084 13.6338 14.6562 13.7619 14.6563C13.7784 14.6563 13.795 14.6555 13.8117 14.6539C13.879 14.6475 13.9445 14.6278 14.0043 14.596C14.0641 14.5643 14.117 14.5211 14.1601 14.4688C14.2032 14.4166 14.2355 14.3564 14.2554 14.2917C14.2752 14.227 14.282 14.159 14.2756 14.0916C14.2093 13.3627 14.3125 12.6283 14.5769 11.9459C14.6025 11.8832 14.6156 11.816 14.6152 11.7483C14.6149 11.6806 14.6012 11.6136 14.5749 11.5511C14.5487 11.4887 14.5104 11.432 14.4622 11.3844C14.4141 11.3368 14.357 11.2991 14.2943 11.2735Z" fill="white"/>
<path d="M8.2143 28.2987C5.38217 28.2987 3.07812 30.811 3.07812 33.899C3.07812 36.9869 5.38217 39.4993 8.2143 39.4993C11.0464 39.4993 13.3505 36.987 13.3505 33.899C13.3505 30.8109 11.0464 28.2987 8.2143 28.2987ZM8.2143 38.4684C5.95063 38.4684 4.10902 36.4185 4.10902 33.899C4.10902 31.3794 5.95063 29.3296 8.2143 29.3296C10.478 29.3296 12.3196 31.3794 12.3196 33.899C12.3196 36.4185 10.478 38.4684 8.2143 38.4684Z" fill="white"/>
<path d="M25.2885 28.2987C22.4564 28.2987 20.1523 30.811 20.1523 33.899C20.1523 36.9869 22.4564 39.4993 25.2885 39.4993C28.1206 39.4993 30.4247 36.987 30.4247 33.899C30.4247 30.8109 28.1206 28.2987 25.2885 28.2987ZM25.2885 38.4684C23.0248 38.4684 21.1832 36.4185 21.1832 33.899C21.1832 31.3794 23.0248 29.3296 25.2885 29.3296C27.5522 29.3296 29.3938 31.3794 29.3938 33.899C29.3938 36.4185 27.5522 38.4684 25.2885 38.4684Z" fill="white"/>
<path d="M22.8773 4.95092C22.6463 4.87601 22.4447 4.73045 22.301 4.5348C22.1572 4.33915 22.0785 4.10328 22.0759 3.86049V2.88595C22.3396 2.77225 22.5622 2.58078 22.714 2.33715C22.8658 2.09351 22.9397 1.80933 22.9257 1.52259C22.9015 1.15743 22.7384 0.815383 22.47 0.566646C22.2016 0.317909 21.8481 0.181354 21.4822 0.185008H12.0349C11.7109 0.185091 11.3969 0.296946 11.1457 0.5017C10.8946 0.706454 10.7218 0.99157 10.6564 1.30894C10.5911 1.62631 10.6373 1.9565 10.7871 2.24379C10.9369 2.53109 11.1813 2.7579 11.479 2.88595V3.86066C11.4764 4.10342 11.3977 4.33925 11.254 4.53488C11.1102 4.7305 10.9086 4.87603 10.6777 4.95092C10.2483 5.09697 9.87551 5.37393 9.61171 5.74285C9.34791 6.11177 9.20639 6.5541 9.20703 7.00764V14.003C9.20703 14.1397 9.26134 14.2708 9.358 14.3674C9.45467 14.4641 9.58578 14.5184 9.72248 14.5184C9.85919 14.5184 9.99029 14.4641 10.087 14.3674C10.1836 14.2708 10.2379 14.1397 10.2379 14.003V7.0073C10.2404 6.76452 10.3191 6.52866 10.4629 6.33302C10.6066 6.13738 10.8082 5.99184 11.0392 5.91695C11.4686 5.77093 11.8414 5.49399 12.1052 5.12508C12.369 4.75617 12.5105 4.31385 12.5098 3.86032V3.00124H21.0451V3.90868C21.0451 4.83778 21.663 5.62762 22.5428 5.92615C22.7688 6.00265 22.9651 6.14819 23.104 6.34223C23.2429 6.53626 23.3174 6.76901 23.317 7.00764V19.5625C23.3168 19.8911 23.1864 20.2063 22.9541 20.4388C22.7219 20.6713 22.407 20.8023 22.0784 20.8029H11.4765C11.1478 20.8023 10.8329 20.6713 10.6007 20.4388C10.3685 20.2062 10.238 19.8911 10.2379 19.5625V12.1893C10.2379 12.0526 10.1836 11.9215 10.087 11.8249C9.99029 11.7282 9.85919 11.6739 9.72248 11.6739C9.58578 11.6739 9.45467 11.7282 9.358 11.8249C9.26134 11.9215 9.20703 12.0526 9.20703 12.1893V19.5625C9.20744 20.1644 9.44661 20.7416 9.87207 21.1674C10.2975 21.5932 10.8745 21.8329 11.4765 21.8338H22.0784C22.6803 21.8329 23.2573 21.5932 23.6828 21.1674C24.1082 20.7416 24.3474 20.1644 24.3479 19.5625V7.00764C24.3485 6.55412 24.207 6.1118 23.9432 5.74288C23.6794 5.37396 23.3066 5.09699 22.8773 4.95092ZM21.52 1.96992H12.0349C11.9359 1.96842 11.8415 1.92803 11.772 1.85748C11.7025 1.78692 11.6635 1.69186 11.6635 1.59282C11.6635 1.49379 11.7025 1.39872 11.772 1.32817C11.8415 1.25761 11.9359 1.21723 12.0349 1.21573H21.5199C21.6189 1.21723 21.7134 1.25761 21.7829 1.32817C21.8524 1.39872 21.8913 1.49379 21.8913 1.59282C21.8913 1.69186 21.8524 1.78692 21.7829 1.85748C21.7134 1.92803 21.619 1.96842 21.52 1.96992Z" fill="white"/>
<path d="M14.295 25.5623C14.067 25.487 13.8686 25.3416 13.7281 25.1469C13.5875 24.9522 13.5121 24.7181 13.5126 24.4779V23.5039C13.8102 23.3759 14.0546 23.149 14.2044 22.8617C14.3543 22.5744 14.4004 22.2442 14.3351 21.9269C14.2697 21.6095 14.0969 21.3244 13.8457 21.1196C13.5946 20.9149 13.2805 20.803 12.9565 20.803H3.47164C3.14761 20.803 2.8335 20.9148 2.58234 21.1196C2.33118 21.3243 2.15834 21.6094 2.09299 21.9268C2.02764 22.2442 2.07377 22.5744 2.22361 22.8617C2.37345 23.149 2.61782 23.3759 2.91548 23.5039V24.4782C2.91585 24.7183 2.84041 24.9523 2.6999 25.147C2.5594 25.3417 2.36101 25.487 2.13303 25.5623C1.69908 25.7055 1.32145 25.9821 1.05398 26.3526C0.786517 26.7231 0.64288 27.1686 0.643557 27.6256V40.1804C0.643989 40.7823 0.883188 41.3595 1.30868 41.7854C1.73416 42.2112 2.31119 42.4509 2.91316 42.4518H13.5149C14.1168 42.4509 14.6939 42.2112 15.1194 41.7854C15.5448 41.3595 15.784 40.7823 15.7845 40.1804V27.6256C15.7852 27.1686 15.6415 26.7231 15.3741 26.3526C15.1066 25.9821 14.729 25.7055 14.295 25.5623ZM3.47164 21.8339H12.9565C13.0565 21.8339 13.1524 21.8736 13.2231 21.9443C13.2938 22.015 13.3335 22.1109 13.3335 22.2109C13.3335 22.3109 13.2938 22.4068 13.2231 22.4775C13.1524 22.5482 13.0565 22.588 12.9565 22.588H3.47164C3.37164 22.588 3.27574 22.5482 3.20503 22.4775C3.13432 22.4068 3.09459 22.3109 3.09459 22.2109C3.09459 22.1109 3.13432 22.015 3.20503 21.9443C3.27574 21.8736 3.37164 21.8339 3.47164 21.8339ZM14.7536 40.1804C14.7534 40.509 14.623 40.8242 14.3907 41.0567C14.1585 41.2893 13.8435 41.4203 13.5149 41.4209H2.91316C2.58451 41.4203 2.26952 41.2893 2.0373 41.0567C1.80508 40.8242 1.67459 40.509 1.67445 40.1804V27.6256C1.67415 27.3855 1.74964 27.1515 1.89015 26.9569C2.03067 26.7622 2.22904 26.6169 2.45699 26.5416C2.89089 26.3984 3.2685 26.1219 3.53595 25.7514C3.80341 25.3809 3.94704 24.9355 3.94637 24.4785V23.6195H12.4817V24.4785C12.481 24.9355 12.6247 25.3809 12.8921 25.7514C13.1596 26.1219 13.5372 26.3984 13.9711 26.5416C14.1991 26.6169 14.3975 26.7623 14.538 26.957C14.6785 27.1517 14.754 27.3858 14.7536 27.626V40.1804Z" fill="white"/>
<path d="M31.3692 25.5623C31.1412 25.487 30.9428 25.3416 30.8023 25.1469C30.6618 24.9522 30.5863 24.7181 30.5868 24.4779V23.5038C30.8845 23.3758 31.1289 23.149 31.2787 22.8617C31.4286 22.5744 31.4748 22.2441 31.4094 21.9267C31.344 21.6094 31.1712 21.3242 30.92 21.1195C30.6688 20.9148 30.3547 20.803 30.0306 20.803H20.5458C20.2217 20.803 19.9077 20.9149 19.6565 21.1196C19.4054 21.3244 19.2325 21.6095 19.1672 21.9269C19.1019 22.2442 19.148 22.5744 19.2978 22.8617C19.4477 23.149 19.692 23.3759 19.9897 23.5039V24.4782C19.9901 24.7183 19.9147 24.9525 19.7742 25.1472C19.6336 25.3419 19.4352 25.4873 19.2072 25.5625C18.7733 25.7057 18.3957 25.9823 18.1282 26.3528C17.8608 26.7232 17.7171 27.1687 17.7178 27.6256V40.1804C17.7182 40.7823 17.9574 41.3595 18.3829 41.7854C18.8084 42.2112 19.3854 42.4509 19.9874 42.4518H30.5891C31.1911 42.4509 31.7681 42.2112 32.1936 41.7854C32.6191 41.3595 32.8583 40.7823 32.8587 40.1804V27.6256C32.8594 27.1686 32.7157 26.7231 32.4483 26.3526C32.1808 25.9821 31.8032 25.7055 31.3692 25.5623ZM20.5458 21.8339H30.0306C30.1306 21.8339 30.2265 21.8736 30.2972 21.9443C30.3679 22.015 30.4077 22.1109 30.4077 22.2109C30.4077 22.3109 30.3679 22.4068 30.2972 22.4775C30.2265 22.5482 30.1306 22.588 30.0306 22.588H20.5458C20.4458 22.588 20.3499 22.5482 20.2792 22.4775C20.2085 22.4068 20.1687 22.3109 20.1687 22.2109C20.1687 22.1109 20.2085 22.015 20.2792 21.9443C20.3499 21.8736 20.4458 21.8339 20.5458 21.8339ZM31.8278 40.1804C31.8277 40.509 31.6972 40.8242 31.465 41.0567C31.2327 41.2893 30.9177 41.4203 30.5891 41.4209H19.9874C19.6587 41.4203 19.3437 41.2893 19.1115 41.0567C18.8793 40.8242 18.7488 40.509 18.7487 40.1804V27.6256C18.7483 27.3855 18.8238 27.1514 18.9643 26.9567C19.1048 26.762 19.3032 26.6166 19.5312 26.5413C19.9651 26.3981 20.3427 26.1215 20.6101 25.751C20.8776 25.3806 21.0212 24.9351 21.0206 24.4782V23.6191H29.5559V24.4782C29.5552 24.9352 29.6988 25.3807 29.9662 25.7513C30.2337 26.1218 30.6114 26.3984 31.0454 26.5416C31.2733 26.6169 31.4717 26.7623 31.6123 26.957C31.7528 27.1517 31.8282 27.3858 31.8278 27.626V40.1804Z" fill="white"/>
</svg>
