<svg width="20" height="20" viewBox="0 0 20 20" fill="none" xmlns="http://www.w3.org/2000/svg">
<path d="M0.139648 17.7578C0.139648 12.7143 0.139648 7.67074 0.139648 2.62719C0.149756 2.59809 0.16997 2.57385 0.175024 2.54475C0.28115 1.98705 0.569206 1.53119 1.06446 1.23537C1.33736 1.07533 1.66079 0.997737 1.95895 0.881348C7.21472 0.881348 12.4705 0.881348 17.7262 0.881348C17.7616 0.891047 17.7919 0.910445 17.8273 0.915295C18.4489 1.03653 18.9341 1.34691 19.2423 1.87551C19.3788 2.10829 19.4445 2.37501 19.5405 2.62719C19.5405 7.67074 19.5405 12.7143 19.5405 17.7578C19.5304 17.7918 19.5102 17.8209 19.5051 17.8548C19.3737 18.4707 19.0351 18.946 18.459 19.2418C18.2316 19.3582 17.9688 19.4164 17.7262 19.4988C12.4705 19.4988 7.21472 19.4988 1.95895 19.4988C1.92358 19.4891 1.89325 19.4697 1.85788 19.4649C1.24639 19.3485 0.761244 19.043 0.452973 18.5192C0.306418 18.2913 0.240721 18.0149 0.139648 17.7578ZM8.74091 10.7599C8.74091 9.97429 8.74091 9.21776 8.74091 8.45637C8.32146 8.45637 7.91212 8.40788 7.52299 8.46607C5.15789 8.82009 3.58116 10.8278 3.84901 13.1168C4.13201 15.527 6.64366 17.2292 9.10982 16.6812C11.1464 16.2254 12.5261 14.5668 12.5311 12.5591C12.5362 11.1042 12.5311 9.64937 12.5311 8.1945C12.5311 8.13145 12.5311 8.06841 12.5311 7.98111C13.5418 8.65036 14.6183 8.98498 15.816 8.99467C15.816 8.22844 15.816 7.48161 15.816 6.74932C13.8147 6.53594 12.7181 5.47874 12.5008 3.57286C11.7276 3.57286 10.9544 3.57286 10.161 3.57286C10.161 3.66015 10.161 3.73774 10.161 3.81534C10.161 6.70568 10.1559 9.59602 10.1559 12.4864C10.1559 12.6125 10.1559 12.7434 10.1408 12.8695C10.0144 13.7521 9.27154 14.4116 8.32146 14.4989C7.43708 14.5765 6.57291 14.0285 6.28485 13.2041C5.99679 12.37 6.34044 11.4486 7.11364 10.983C7.61901 10.6775 8.15974 10.6241 8.74091 10.7599Z" fill="black"/>
</svg>
