<svg width="27" height="26" viewBox="0 0 27 26" fill="none" xmlns="http://www.w3.org/2000/svg">
<path d="M0.771484 23.3646C0.771484 16.5741 0.771484 9.78362 0.771484 2.99313C0.785092 2.95396 0.812309 2.92131 0.819113 2.88213C0.961998 2.13126 1.34983 1.51751 2.01662 1.11922C2.38404 0.903751 2.8195 0.799282 3.22094 0.642578C10.2971 0.642578 17.3734 0.642578 24.4496 0.642578C24.4972 0.655637 24.538 0.681754 24.5856 0.688283C25.4225 0.851516 26.0757 1.26939 26.4908 1.98109C26.6745 2.29449 26.7629 2.65361 26.8922 2.99313C26.8922 9.78362 26.8922 16.5741 26.8922 23.3646C26.8786 23.4103 26.8514 23.4495 26.8446 23.4952C26.6677 24.3244 26.2118 24.9643 25.4361 25.3626C25.13 25.5193 24.7762 25.5976 24.4496 25.7086C17.3734 25.7086 10.2971 25.7086 3.22094 25.7086C3.17331 25.6956 3.13249 25.6694 3.08486 25.6629C2.26157 25.5062 1.60838 25.0949 1.19334 24.3897C0.996018 24.0828 0.907565 23.7106 0.771484 23.3646ZM12.352 13.9428C12.352 12.885 12.352 11.8665 12.352 10.8414C11.7872 10.8414 11.2361 10.7761 10.7122 10.8544C7.5279 11.3311 5.40504 14.0342 5.76565 17.116C6.14668 20.3611 9.52829 22.6529 12.8487 21.9151C15.5907 21.3013 17.4482 19.0683 17.455 16.3652C17.4618 14.4064 17.455 12.4476 17.455 10.4888C17.455 10.4039 17.455 10.319 17.455 10.2015C18.8158 11.1025 20.2651 11.5531 21.8776 11.5661C21.8776 10.5345 21.8776 9.52898 21.8776 8.54305C19.1832 8.25576 17.7068 6.83237 17.4142 4.26635C16.3732 4.26635 15.3321 4.26635 14.2639 4.26635C14.2639 4.38388 14.2639 4.48834 14.2639 4.59281C14.2639 8.48429 14.2571 12.3758 14.2571 16.2672C14.2571 16.437 14.2571 16.6133 14.2367 16.783C14.0666 17.9714 13.0664 18.8594 11.7872 18.9769C10.5965 19.0814 9.43303 18.3436 9.0452 17.2336C8.65737 16.1105 9.12005 14.87 10.1611 14.2431C10.8415 13.8318 11.5695 13.76 12.352 13.9428Z" fill="black"/>
</svg>
